<svg width="720" height="180" viewBox="0 0 720 180" fill="none" xmlns="http://www.w3.org/2000/svg">
  <rect width="720" height="180" rx="34" fill="#2F3D4B"/>
  <path d="M34 106C34 100.477 38.4772 96 44 96H126C131.523 96 136 100.477 136 106V139C136 144.523 131.523 149 126 149H44C38.4772 149 34 144.523 34 139V106Z" fill="white"/>
  <path d="M112 96H148C159.046 96 168 104.954 168 116C168 127.046 159.046 136 148 136H112V96Z" fill="white"/>
  <circle cx="143.5" cy="116.5" r="7.5" fill="#2F3D4B"/>
  <path d="M37 88L59 79V106H37V88Z" fill="white"/>
  <path d="M66 74L88 63V106H66V74Z" fill="white"/>
  <path d="M95 57L117 45V106H95V57Z" fill="white"/>
  <path d="M37 98C61.4878 98 89.7987 82.592 120.837 47.0769L117.156 43.9231C86.2213 79.3214 59.0904 93 37 93V98Z" fill="white"/>
  <path d="M113 32L145 39L120 64L113 32Z" fill="white"/>
  <path d="M58.7141 110.05L73.8901 125.549H65.553L52.576 112.249H58.7141V110.05ZM69.9621 84.25C67.1588 84.25 64.8699 86.5518 64.8699 89.3712C64.8699 92.1906 67.1588 94.4924 69.9621 94.4924H78.6201L59.093 114.422L64.8108 120.252L84.3379 100.322V109.159C84.3379 111.979 86.6268 114.28 89.4301 114.28C92.2335 114.28 94.5224 111.979 94.5224 109.159V84.25H69.9621Z" fill="#2F3D4B"/>
  <path d="M228 74H269.4C288.071 74 302 84.784 302 103.608C302 117.512 294.484 126.95 281.7 129.908L306.984 163H284.276L260.47 131.996H247.916V163H228V74ZM247.916 115.804H267.214C276.92 115.804 282.73 111.902 282.73 103.608C282.73 95.314 276.92 91.412 267.214 91.412H247.916V115.804Z" fill="white"/>
  <path d="M319 118.5C319 91.7778 338.71 72 365.5 72C392.29 72 412 91.7778 412 118.5C412 145.222 392.29 165 365.5 165C338.71 165 319 145.222 319 118.5ZM392.456 118.5C392.456 101.922 381.551 89.6923 365.5 89.6923C349.449 89.6923 338.544 101.922 338.544 118.5C338.544 135.078 349.449 147.308 365.5 147.308C381.551 147.308 392.456 135.078 392.456 118.5Z" fill="white"/>
  <path d="M427 118.5C427 91.7778 446.71 72 473.5 72C500.29 72 520 91.7778 520 118.5C520 145.222 500.29 165 473.5 165C446.71 165 427 145.222 427 118.5ZM500.456 118.5C500.456 101.922 489.551 89.6923 473.5 89.6923C457.449 89.6923 446.544 101.922 446.544 118.5C446.544 135.078 457.449 147.308 473.5 147.308C489.551 147.308 500.456 135.078 500.456 118.5Z" fill="white"/>
  <path d="M536 74H581.132C604.281 74 617 85.4545 617 103.318C617 116.091 610.919 124.585 600.214 128.224L621 163H599.25L580.637 131.996H555.776V163H536V74ZM555.776 115.804H578.45C588.824 115.804 597.224 112.172 597.224 103.318C597.224 94.4636 588.824 90.8322 578.45 90.8322H555.776V115.804Z" fill="white"/>
  <path d="M637.432 142.402C644.55 146.833 653.082 149.615 661.733 149.615C672.151 149.615 678.416 145.831 678.416 139.426C678.416 133.541 674.989 130.965 660.213 127.453C640.55 122.815 631 114.41 631 99.7788C631 83.6745 644.55 72 662.795 72C673.953 72 684.445 74.996 692.762 80.2062L683.13 95.6115C676.604 91.6016 669.531 89.0508 662.459 89.0508C653.276 89.0508 648.35 93.2811 648.35 98.8516C648.35 104.796 652.738 107.281 666.771 110.794C687.667 115.971 696 123.652 696 138.177C696 155.123 682.552 166.667 661.313 166.667C647.395 166.667 635.604 162.936 626 156.622L637.432 142.402Z" fill="white"/>
  <path d="M228 137H692" stroke="white" stroke-width="4" stroke-linecap="round"/>
  <path d="M228 126H692" stroke="white" stroke-opacity="0.18" stroke-width="1" stroke-linecap="round"/>
  <path d="M228 154.4H256.2V162H228V154.4Z" fill="white"/>
  <path d="M263.8 154.4H273.2C279.588 154.4 284 158.432 284 164.4C284 170.368 279.588 174.4 273.2 174.4H263.8V154.4ZM271.8 168.2C275.268 168.2 277.4 166.208 277.4 164.4C277.4 162.592 275.268 160.6 271.8 160.6H270.4V168.2H271.8Z" fill="white"/>
  <path d="M290 154.4H307.8V160.2H296.6V162H307V167.4H296.6V174.4H290V154.4Z" fill="white"/>
  <path d="M313.6 154.4H323.2L327.8 164.4L332.4 154.4H342V174.4H335.8V163.8L331 173.2H324.6L319.8 163.8V174.4H313.6V154.4Z" fill="white"/>
  <path d="M348.6 154.4H355.2V174.4H348.6V154.4Z" fill="white"/>
  <path d="M362 154.4H371.6L379 165.8V154.4H385.4V174.4H375.8L368.4 163V174.4H362V154.4Z" fill="white"/>
  <path d="M392.2 154.4H398.8V174.4H392.2V154.4Z" fill="white"/>
  <path d="M405.2 154.4H422.4V160.2H411.8V162H421.8V167H411.8V168.6H422.8V174.4H405.2V154.4Z" fill="white"/>
  <path d="M429 154.4H438.6L446 165.8V154.4H452.4V174.4H442.8L435.4 163V174.4H429V154.4Z" fill="white"/>
  <path d="M459 154.4H465.6V168.4H474.4V174.4H459V154.4Z" fill="white"/>
  <path d="M480.2 154.4H497.4V160.2H486.8V162H496.8V167H486.8V168.6H497.8V174.4H480.2V154.4Z" fill="white"/>
  <path d="M503.8 154.4H510.4L516.6 163L522.8 154.4H529.4V174.4H522.8V164.2L516.6 172.6H516.4L510.4 164.2V174.4H503.8V154.4Z" fill="white"/>
  <path d="M536.2 154.4H553.4V160.2H542.8V162H552.8V167H542.8V168.6H553.8V174.4H536.2V154.4Z" fill="white"/>
</svg>
