<svg width="96" height="96" viewBox="0 0 96 96" fill="none" xmlns="http://www.w3.org/2000/svg">
  <rect width="96" height="96" rx="28" fill="#2F3D4B"/>
  <path d="M16 57.2C16 54.992 17.7909 53.2 20 53.2H54.8C57.0091 53.2 58.8 54.992 58.8 57.2V72C58.8 74.2091 57.0091 76 54.8 76H20C17.7909 76 16 74.2091 16 72V57.2Z" fill="white"/>
  <path d="M49.6 57.2H68.8C73.2183 57.2 76.8 60.7817 76.8 65.2V64.8C76.8 69.2183 73.2183 72.8 68.8 72.8H49.6V57.2Z" fill="white"/>
  <circle cx="65.6" cy="64.8" r="4" fill="#2F3D4B"/>
  <path d="M18.4 49.6L28.4 45.6V58.4H18.4V49.6Z" fill="white"/>
  <path d="M31.6 43.2L41.6 38.4V58.4H31.6V43.2Z" fill="white"/>
  <path d="M44.8 36L54.8 30.4V58.4H44.8V36Z" fill="white"/>
  <path d="M18.4 54.4C29.5305 54.4 41.7066 47.1487 55.1547 32.2796L53.3772 30.6724C39.9922 45.4702 28.5106 52 18.4 52V54.4Z" fill="white"/>
  <path d="M52.8 24L67.2 27.2L56 38.4L52.8 24Z" fill="white"/>
  <path d="M26.7059 61.3474L33.6034 68.3905H29.8141L23.9155 62.3474H26.7059ZM31.8191 49.6C30.545 49.6 29.5046 50.6463 29.5046 51.9284C29.5046 53.2105 30.545 54.2568 31.8191 54.2568H35.7546L26.8785 63.3147L29.4776 65.9642L38.3537 56.9063V60.9232C38.3537 62.2053 39.3942 63.2516 40.6682 63.2516C41.9423 63.2516 42.9828 62.2053 42.9828 60.9232V49.6H31.8191Z" fill="#2F3D4B"/>
</svg>
